<mxfile host="65bd71144e">
    <diagram id="xO46mwVGOgDnRbaEMDxw" name="Cat">
        <mxGraphModel dx="559" dy="537" grid="1" gridSize="10" guides="1" tooltips="1" connect="1" arrows="1" fold="1" page="1" pageScale="1" pageWidth="827" pageHeight="1169" math="0" shadow="0">
            <root>
                <mxCell id="0"/>
                <mxCell id="1" parent="0"/>
                <mxCell id="3" value="Classname" style="swimlane;fontStyle=1;align=center;verticalAlign=top;childLayout=stackLayout;horizontal=1;startSize=40;horizontalStack=0;resizeParent=1;resizeParentMax=0;resizeLast=0;collapsible=1;marginBottom=0;shadow=0;" parent="1" vertex="1">
                    <mxGeometry x="308" y="50" width="211" height="378" as="geometry">
                        <mxRectangle x="308" y="40" width="100" height="40" as="alternateBounds"/>
                    </mxGeometry>
                </mxCell>
                <mxCell id="7" value="- name: String" style="text;strokeColor=none;fillColor=none;align=left;verticalAlign=top;spacingLeft=4;spacingRight=4;overflow=hidden;rotatable=0;points=[[0,0.5],[1,0.5]];portConstraint=eastwest;" vertex="1" parent="3">
                    <mxGeometry y="40" width="211" height="30" as="geometry"/>
                </mxCell>
                <mxCell id="4" value="- furColor: String" style="text;strokeColor=none;fillColor=none;align=left;verticalAlign=top;spacingLeft=4;spacingRight=4;overflow=hidden;rotatable=0;points=[[0,0.5],[1,0.5]];portConstraint=eastwest;" parent="3" vertex="1">
                    <mxGeometry y="70" width="211" height="30" as="geometry"/>
                </mxCell>
                <mxCell id="8" value="- age: int" style="text;strokeColor=none;fillColor=none;align=left;verticalAlign=top;spacingLeft=4;spacingRight=4;overflow=hidden;rotatable=0;points=[[0,0.5],[1,0.5]];portConstraint=eastwest;" vertex="1" parent="3">
                    <mxGeometry y="100" width="211" height="30" as="geometry"/>
                </mxCell>
                <mxCell id="5" value="" style="line;strokeWidth=1;fillColor=none;align=left;verticalAlign=middle;spacingTop=-1;spacingLeft=3;spacingRight=3;rotatable=0;labelPosition=right;points=[];portConstraint=eastwest;strokeColor=inherit;" parent="3" vertex="1">
                    <mxGeometry y="130" width="211" height="8" as="geometry"/>
                </mxCell>
                <mxCell id="6" value="+ Cat(String,String,int)" style="text;strokeColor=none;fillColor=none;align=left;verticalAlign=top;spacingLeft=4;spacingRight=4;overflow=hidden;rotatable=0;points=[[0,0.5],[1,0.5]];portConstraint=eastwest;" parent="3" vertex="1">
                    <mxGeometry y="138" width="211" height="30" as="geometry"/>
                </mxCell>
                <mxCell id="9" value="+ getInstanceVariable(): Cat" style="text;strokeColor=none;fillColor=none;align=left;verticalAlign=top;spacingLeft=4;spacingRight=4;overflow=hidden;rotatable=0;points=[[0,0.5],[1,0.5]];portConstraint=eastwest;" vertex="1" parent="3">
                    <mxGeometry y="168" width="211" height="30" as="geometry"/>
                </mxCell>
                <mxCell id="10" value="+ getName(): String" style="text;strokeColor=none;fillColor=none;align=left;verticalAlign=top;spacingLeft=4;spacingRight=4;overflow=hidden;rotatable=0;points=[[0,0.5],[1,0.5]];portConstraint=eastwest;" vertex="1" parent="3">
                    <mxGeometry y="198" width="211" height="30" as="geometry"/>
                </mxCell>
                <mxCell id="11" value="+ getFurColor(): String" style="text;strokeColor=none;fillColor=none;align=left;verticalAlign=top;spacingLeft=4;spacingRight=4;overflow=hidden;rotatable=0;points=[[0,0.5],[1,0.5]];portConstraint=eastwest;" vertex="1" parent="3">
                    <mxGeometry y="228" width="211" height="30" as="geometry"/>
                </mxCell>
                <mxCell id="12" value="+ getAge(): int" style="text;strokeColor=none;fillColor=none;align=left;verticalAlign=top;spacingLeft=4;spacingRight=4;overflow=hidden;rotatable=0;points=[[0,0.5],[1,0.5]];portConstraint=eastwest;" vertex="1" parent="3">
                    <mxGeometry y="258" width="211" height="30" as="geometry"/>
                </mxCell>
                <mxCell id="14" value="+ setFurColor(String): void" style="text;strokeColor=none;fillColor=none;align=left;verticalAlign=top;spacingLeft=4;spacingRight=4;overflow=hidden;rotatable=0;points=[[0,0.5],[1,0.5]];portConstraint=eastwest;" vertex="1" parent="3">
                    <mxGeometry y="288" width="211" height="30" as="geometry"/>
                </mxCell>
                <mxCell id="15" value="+ setAge(int): void" style="text;strokeColor=none;fillColor=none;align=left;verticalAlign=top;spacingLeft=4;spacingRight=4;overflow=hidden;rotatable=0;points=[[0,0.5],[1,0.5]];portConstraint=eastwest;" vertex="1" parent="3">
                    <mxGeometry y="318" width="211" height="30" as="geometry"/>
                </mxCell>
                <mxCell id="17" value="- getPermission(): boolean" style="text;strokeColor=none;fillColor=none;align=left;verticalAlign=top;spacingLeft=4;spacingRight=4;overflow=hidden;rotatable=0;points=[[0,0.5],[1,0.5]];portConstraint=eastwest;" vertex="1" parent="3">
                    <mxGeometry y="348" width="211" height="30" as="geometry"/>
                </mxCell>
            </root>
        </mxGraphModel>
    </diagram>
    <diagram name="App-Cat" id="NoI-_LTrVk5SYLVCbc_f">
        <mxGraphModel dx="613" dy="537" grid="1" gridSize="10" guides="1" tooltips="1" connect="1" arrows="1" fold="1" page="1" pageScale="1" pageWidth="827" pageHeight="1169" math="0" shadow="0">
            <root>
                <mxCell id="hAxOitDrgHTmb-eqGHvS-0"/>
                <mxCell id="hAxOitDrgHTmb-eqGHvS-1" parent="hAxOitDrgHTmb-eqGHvS-0"/>
                <mxCell id="hAxOitDrgHTmb-eqGHvS-2" value="Classname" style="swimlane;fontStyle=1;align=center;verticalAlign=top;childLayout=stackLayout;horizontal=1;startSize=40;horizontalStack=0;resizeParent=1;resizeParentMax=0;resizeLast=0;collapsible=1;marginBottom=0;shadow=0;rounded=0;" vertex="1" parent="hAxOitDrgHTmb-eqGHvS-1">
                    <mxGeometry x="400" y="40" width="239" height="378" as="geometry">
                        <mxRectangle x="308" y="40" width="100" height="40" as="alternateBounds"/>
                    </mxGeometry>
                </mxCell>
                <mxCell id="hAxOitDrgHTmb-eqGHvS-3" value="- name: String" style="text;strokeColor=none;fillColor=none;align=left;verticalAlign=top;spacingLeft=4;spacingRight=4;overflow=hidden;rotatable=0;points=[[0,0.5],[1,0.5]];portConstraint=eastwest;rounded=0;" vertex="1" parent="hAxOitDrgHTmb-eqGHvS-2">
                    <mxGeometry y="40" width="239" height="30" as="geometry"/>
                </mxCell>
                <mxCell id="hAxOitDrgHTmb-eqGHvS-4" value="- furColor: String" style="text;strokeColor=none;fillColor=none;align=left;verticalAlign=top;spacingLeft=4;spacingRight=4;overflow=hidden;rotatable=0;points=[[0,0.5],[1,0.5]];portConstraint=eastwest;rounded=0;" vertex="1" parent="hAxOitDrgHTmb-eqGHvS-2">
                    <mxGeometry y="70" width="239" height="30" as="geometry"/>
                </mxCell>
                <mxCell id="hAxOitDrgHTmb-eqGHvS-5" value="- age: int" style="text;strokeColor=none;fillColor=none;align=left;verticalAlign=top;spacingLeft=4;spacingRight=4;overflow=hidden;rotatable=0;points=[[0,0.5],[1,0.5]];portConstraint=eastwest;rounded=0;" vertex="1" parent="hAxOitDrgHTmb-eqGHvS-2">
                    <mxGeometry y="100" width="239" height="30" as="geometry"/>
                </mxCell>
                <mxCell id="hAxOitDrgHTmb-eqGHvS-6" value="" style="line;strokeWidth=1;fillColor=none;align=left;verticalAlign=middle;spacingTop=-1;spacingLeft=3;spacingRight=3;rotatable=0;labelPosition=right;points=[];portConstraint=eastwest;strokeColor=inherit;rounded=0;" vertex="1" parent="hAxOitDrgHTmb-eqGHvS-2">
                    <mxGeometry y="130" width="239" height="8" as="geometry"/>
                </mxCell>
                <mxCell id="hAxOitDrgHTmb-eqGHvS-7" value="+ Cat(String,String,int)" style="text;strokeColor=none;fillColor=none;align=left;verticalAlign=top;spacingLeft=4;spacingRight=4;overflow=hidden;rotatable=0;points=[[0,0.5],[1,0.5]];portConstraint=eastwest;rounded=0;" vertex="1" parent="hAxOitDrgHTmb-eqGHvS-2">
                    <mxGeometry y="138" width="239" height="30" as="geometry"/>
                </mxCell>
                <mxCell id="hAxOitDrgHTmb-eqGHvS-8" value="+ getInstanceVariable(): Cat" style="text;strokeColor=none;fillColor=none;align=left;verticalAlign=top;spacingLeft=4;spacingRight=4;overflow=hidden;rotatable=0;points=[[0,0.5],[1,0.5]];portConstraint=eastwest;rounded=0;" vertex="1" parent="hAxOitDrgHTmb-eqGHvS-2">
                    <mxGeometry y="168" width="239" height="30" as="geometry"/>
                </mxCell>
                <mxCell id="hAxOitDrgHTmb-eqGHvS-9" value="+ getName(): String" style="text;strokeColor=none;fillColor=none;align=left;verticalAlign=top;spacingLeft=4;spacingRight=4;overflow=hidden;rotatable=0;points=[[0,0.5],[1,0.5]];portConstraint=eastwest;rounded=0;" vertex="1" parent="hAxOitDrgHTmb-eqGHvS-2">
                    <mxGeometry y="198" width="239" height="30" as="geometry"/>
                </mxCell>
                <mxCell id="hAxOitDrgHTmb-eqGHvS-10" value="+ getFurColor(): String" style="text;strokeColor=none;fillColor=none;align=left;verticalAlign=top;spacingLeft=4;spacingRight=4;overflow=hidden;rotatable=0;points=[[0,0.5],[1,0.5]];portConstraint=eastwest;rounded=0;" vertex="1" parent="hAxOitDrgHTmb-eqGHvS-2">
                    <mxGeometry y="228" width="239" height="30" as="geometry"/>
                </mxCell>
                <mxCell id="hAxOitDrgHTmb-eqGHvS-11" value="+ getAge(): int" style="text;strokeColor=none;fillColor=none;align=left;verticalAlign=top;spacingLeft=4;spacingRight=4;overflow=hidden;rotatable=0;points=[[0,0.5],[1,0.5]];portConstraint=eastwest;rounded=0;" vertex="1" parent="hAxOitDrgHTmb-eqGHvS-2">
                    <mxGeometry y="258" width="239" height="30" as="geometry"/>
                </mxCell>
                <mxCell id="hAxOitDrgHTmb-eqGHvS-12" value="+ setFurColor(String): void" style="text;strokeColor=none;fillColor=none;align=left;verticalAlign=top;spacingLeft=4;spacingRight=4;overflow=hidden;rotatable=0;points=[[0,0.5],[1,0.5]];portConstraint=eastwest;rounded=0;" vertex="1" parent="hAxOitDrgHTmb-eqGHvS-2">
                    <mxGeometry y="288" width="239" height="30" as="geometry"/>
                </mxCell>
                <mxCell id="hAxOitDrgHTmb-eqGHvS-13" value="+ setAge(int): void" style="text;strokeColor=none;fillColor=none;align=left;verticalAlign=top;spacingLeft=4;spacingRight=4;overflow=hidden;rotatable=0;points=[[0,0.5],[1,0.5]];portConstraint=eastwest;rounded=0;" vertex="1" parent="hAxOitDrgHTmb-eqGHvS-2">
                    <mxGeometry y="318" width="239" height="30" as="geometry"/>
                </mxCell>
                <mxCell id="hAxOitDrgHTmb-eqGHvS-14" value="- getPermission(): boolean" style="text;strokeColor=none;fillColor=none;align=left;verticalAlign=top;spacingLeft=4;spacingRight=4;overflow=hidden;rotatable=0;points=[[0,0.5],[1,0.5]];portConstraint=eastwest;rounded=0;" vertex="1" parent="hAxOitDrgHTmb-eqGHvS-2">
                    <mxGeometry y="348" width="239" height="30" as="geometry"/>
                </mxCell>
                <mxCell id="-nxfdUm-NcLx8B7e0rce-0" value="App" style="swimlane;fontStyle=1;align=center;verticalAlign=top;childLayout=stackLayout;horizontal=1;startSize=26;horizontalStack=0;resizeParent=1;resizeParentMax=0;resizeLast=0;collapsible=1;marginBottom=0;rounded=0;" vertex="1" parent="hAxOitDrgHTmb-eqGHvS-1">
                    <mxGeometry x="160" y="40" width="160" height="86" as="geometry"/>
                </mxCell>
                <mxCell id="-nxfdUm-NcLx8B7e0rce-2" value="" style="line;strokeWidth=1;fillColor=none;align=left;verticalAlign=middle;spacingTop=-1;spacingLeft=3;spacingRight=3;rotatable=0;labelPosition=right;points=[];portConstraint=eastwest;strokeColor=inherit;rounded=0;" vertex="1" parent="-nxfdUm-NcLx8B7e0rce-0">
                    <mxGeometry y="26" width="160" height="8" as="geometry"/>
                </mxCell>
                <mxCell id="-nxfdUm-NcLx8B7e0rce-3" value="+ main(String):  void" style="text;strokeColor=none;fillColor=none;align=left;verticalAlign=top;spacingLeft=4;spacingRight=4;overflow=hidden;rotatable=0;points=[[0,0.5],[1,0.5]];portConstraint=eastwest;fontStyle=4;rounded=0;" vertex="1" parent="-nxfdUm-NcLx8B7e0rce-0">
                    <mxGeometry y="34" width="160" height="26" as="geometry"/>
                </mxCell>
                <mxCell id="-nxfdUm-NcLx8B7e0rce-4" value="+ output(String): void" style="text;strokeColor=none;fillColor=none;align=left;verticalAlign=top;spacingLeft=4;spacingRight=4;overflow=hidden;rotatable=0;points=[[0,0.5],[1,0.5]];portConstraint=eastwest;fontStyle=4;rounded=0;" vertex="1" parent="-nxfdUm-NcLx8B7e0rce-0">
                    <mxGeometry y="60" width="160" height="26" as="geometry"/>
                </mxCell>
                <mxCell id="-nxfdUm-NcLx8B7e0rce-7" value="" style="endArrow=open;endFill=1;endSize=12;html=1;" edge="1" parent="hAxOitDrgHTmb-eqGHvS-1">
                    <mxGeometry width="160" relative="1" as="geometry">
                        <mxPoint x="320" y="80" as="sourcePoint"/>
                        <mxPoint x="400" y="80" as="targetPoint"/>
                    </mxGeometry>
                </mxCell>
            </root>
        </mxGraphModel>
    </diagram>
</mxfile>